<?xml version="1.0" encoding="utf-8"?>
<!-- Generator: Adobe Illustrator 22.1.0, SVG Export Plug-In . SVG Version: 6.00 Build 0)  -->
<svg version="1.1" id="OBJECTS" xmlns="http://www.w3.org/2000/svg" xmlns:xlink="http://www.w3.org/1999/xlink" x="0px" y="0px"
	 viewBox="0 0 174.7 199.5" style="enable-background:new 0 0 174.7 199.5;" xml:space="preserve">
<style type="text/css">
	.st0{fill:url(#SVGID_1_);}
	.st1{fill:url(#SVGID_2_);}
	.st2{fill:url(#SVGID_3_);}
	.st3{fill:url(#SVGID_4_);}
	.st4{fill:#535D7C;}
	.st5{fill:#3C485A;}
	.st6{fill:#DB9022;}
	.st7{fill:#646F8B;}
	.st8{fill:#2F3945;}
	.st9{opacity:0.5;fill:#222221;}
</style>
<g>
	<g>
		<linearGradient id="SVGID_1_" gradientUnits="userSpaceOnUse" x1="65.0009" y1="181.5057" x2="65.0009" y2="199.251">
			<stop  offset="0" style="stop-color:#CA4F24"/>
			<stop  offset="0.4775" style="stop-color:#DB9022;stop-opacity:0.7"/>
			<stop  offset="0.7825" style="stop-color:#E9BA3F;stop-opacity:0.4"/>
			<stop  offset="1" style="stop-color:#F6E83A;stop-opacity:0"/>
		</linearGradient>
		<rect x="57.3" y="180.5" class="st0" width="15.4" height="19"/>
		<linearGradient id="SVGID_2_" gradientUnits="userSpaceOnUse" x1="109.696" y1="181.5057" x2="109.696" y2="199.251">
			<stop  offset="0" style="stop-color:#CA4F24"/>
			<stop  offset="0.4775" style="stop-color:#DB9022;stop-opacity:0.7"/>
			<stop  offset="0.7825" style="stop-color:#E9BA3F;stop-opacity:0.4"/>
			<stop  offset="1" style="stop-color:#F6E83A;stop-opacity:0"/>
		</linearGradient>
		<rect x="102" y="180.5" class="st1" width="15.4" height="19"/>
		<linearGradient id="SVGID_3_" gradientUnits="userSpaceOnUse" x1="46.9063" y1="166.9833" x2="46.9063" y2="184.7286">
			<stop  offset="0" style="stop-color:#CA4F24"/>
			<stop  offset="0.4775" style="stop-color:#DB9022;stop-opacity:0.7"/>
			<stop  offset="0.7825" style="stop-color:#E9BA3F;stop-opacity:0.4"/>
			<stop  offset="1" style="stop-color:#F6E83A;stop-opacity:0"/>
		</linearGradient>
		<rect x="39.2" y="166" class="st2" width="15.4" height="19"/>
		<linearGradient id="SVGID_4_" gradientUnits="userSpaceOnUse" x1="127.7929" y1="166.9833" x2="127.7929" y2="184.7286">
			<stop  offset="0" style="stop-color:#CA4F24"/>
			<stop  offset="0.4775" style="stop-color:#DB9022;stop-opacity:0.7"/>
			<stop  offset="0.7825" style="stop-color:#E9BA3F;stop-opacity:0.4"/>
			<stop  offset="1" style="stop-color:#F6E83A;stop-opacity:0"/>
		</linearGradient>
		<rect x="120.1" y="166" class="st3" width="15.4" height="19"/>
		<g>
			<g>
				<polygon class="st4" points="39.2,151.4 39.2,166.4 57.3,166.4 57.3,180.5 75.2,180.5 				"/>
				<path class="st5" d="M87.3,0v184.1H75.3l-27.5-22c-11.6-9.3-16.2-24.9-11.6-39l18.5-55.8l17.9-54.2L87.3,0z"/>
				<polygon class="st4" points="8.1,97.9 54.6,67.2 35,127.3 25.4,120.4 0,132.5 				"/>
				<path class="st4" d="M87.3,5.7L76,16l-0.4,1.4c-7.3,23.2-7.2,44.3,0.3,67.5l0,3.7l0-3.7l11.5,12.6V5.7z"/>
				<polygon class="st6" points="3.2,118.9 27.3,107.6 39.2,113.9 35,127.3 25.4,120.4 0,132.5 				"/>
				<g>
					<path class="st7" d="M87.3,101.9L75.9,88.6l0,0c-4.7,7.6-7.3,16-8.1,24.5h19.6V101.9z"/>
					<path class="st7" d="M81,154.4l6.3,7.4v-22.7H71.7C74,144.6,77.1,149.8,81,154.4z"/>
					<path class="st7" d="M67.6,120c0.2,4.1,0.8,8.2,1.8,12.2h17.9V120H67.6z"/>
					<path class="st4" d="M87.3,113.1H67.8c-0.2,2.3-0.3,4.6-0.2,6.9h19.7V113.1z"/>
					<path class="st4" d="M71.7,139.2h15.6v-6.9H69.4C70.1,134.6,70.8,136.9,71.7,139.2z"/>
				</g>
				<polygon class="st4" points="75.3,184.1 87.3,168.7 87.3,184.1 				"/>
				<path class="st6" d="M42.6,121.7l16.5-55.6L48,155.4C48,155.4,35.2,146.8,42.6,121.7z"/>
				<polygon class="st8" points="58.2,56.3 8.1,97.9 54.6,67.2 				"/>
			</g>
			<g>
				<polygon class="st4" points="135.5,151.4 135.5,166.4 117.4,166.4 117.4,180.5 99.5,180.5 				"/>
				<path class="st5" d="M87.3,0v184.1h12.1l27.5-22c11.6-9.3,16.2-24.9,11.6-39l-18.5-55.8l-17.9-54.2L87.3,0z"/>
				<polygon class="st4" points="166.6,97.9 120.1,67.2 139.7,127.3 149.3,120.4 174.7,132.5 				"/>
				<path class="st4" d="M87.3,5.7L98.7,16l0.4,1.4c7.3,23.2,7.2,44.3-0.3,67.5l0,3.7l0-3.7L87.3,97.5V5.7z"/>
				<polygon class="st6" points="171.5,118.9 147.4,107.6 135.5,113.9 139.7,127.3 149.3,120.4 174.7,132.5 				"/>
				<path class="st6" d="M87.3,5.7L76,16l0,0c4.5,9.6,18.2,9.6,22.7,0v0L87.3,5.7z"/>
				<g>
					<path class="st7" d="M87.3,101.9l11.5-13.3l0,0c4.7,7.6,7.3,16,8.1,24.5H87.3V101.9z"/>
					<path class="st7" d="M93.7,154.4l-6.3,7.4v-22.7H103C100.7,144.6,97.6,149.8,93.7,154.4z"/>
					<path class="st7" d="M107.1,120c-0.2,4.1-0.8,8.2-1.8,12.2H87.3V120H107.1z"/>
					<path class="st4" d="M87.3,113.1h19.6c0.2,2.3,0.3,4.6,0.2,6.9H87.3V113.1z"/>
					<path class="st4" d="M103,139.2H87.3v-6.9h17.9C104.6,134.6,103.9,136.9,103,139.2z"/>
				</g>
				<polygon class="st4" points="99.4,184.1 87.3,168.7 87.3,184.1 				"/>
				<path class="st6" d="M132.1,121.7l-16.5-55.6l11.1,89.3C126.7,155.4,139.5,146.8,132.1,121.7z"/>
				<polygon class="st8" points="116.5,56.3 166.6,97.9 120.1,67.2 				"/>
			</g>
		</g>
	</g>
	<path class="st9" d="M99.5,184.1l4.5-3.6h13.5v-10.8l4.1-3.3h14v-14.3c4.3-7.4,5.9-16.2,4.1-24.8l0,0l9.6-6.9l25.4,12.1l-8.1-34.6
		l-50.2-41.6l-14.3-43.2L87.4,0v184.1H99.5z"/>
</g>
</svg>
