<?xml version="1.0" encoding="utf-8"?>
<!-- Generator: Adobe Illustrator 22.1.0, SVG Export Plug-In . SVG Version: 6.00 Build 0)  -->
<svg version="1.1" id="OBJECTS" xmlns="http://www.w3.org/2000/svg" xmlns:xlink="http://www.w3.org/1999/xlink" x="0px" y="0px"
	 viewBox="0 0 162.2 204.2" style="enable-background:new 0 0 162.2 204.2;" xml:space="preserve">
<style type="text/css">
	.st0{fill:url(#SVGID_1_);}
	.st1{fill:url(#SVGID_2_);}
	.st2{fill:#3C485A;}
	.st3{fill:#2F3945;}
	.st4{fill:#67B0B0;}
	.st5{fill:#535D7C;}
	.st6{fill:#646F8B;}
	.st7{fill:url(#SVGID_3_);}
	.st8{opacity:0.5;fill:#222221;}
</style>
<g>
	<g>
		<linearGradient id="SVGID_1_" gradientUnits="userSpaceOnUse" x1="67.2645" y1="170.7969" x2="67.2645" y2="193.7447">
			<stop  offset="0" style="stop-color:#CA4F24"/>
			<stop  offset="0.4775" style="stop-color:#DB9022;stop-opacity:0.7"/>
			<stop  offset="0.7825" style="stop-color:#E9BA3F;stop-opacity:0.4"/>
			<stop  offset="1" style="stop-color:#F6E83A;stop-opacity:0"/>
		</linearGradient>
		<rect x="62.5" y="169.5" class="st0" width="9.5" height="24.6"/>
		<linearGradient id="SVGID_2_" gradientUnits="userSpaceOnUse" x1="94.9202" y1="170.7969" x2="94.9202" y2="193.7447">
			<stop  offset="0" style="stop-color:#CA4F24"/>
			<stop  offset="0.4775" style="stop-color:#DB9022;stop-opacity:0.7"/>
			<stop  offset="0.7825" style="stop-color:#E9BA3F;stop-opacity:0.4"/>
			<stop  offset="1" style="stop-color:#F6E83A;stop-opacity:0"/>
		</linearGradient>
		<rect x="90.2" y="169.5" class="st1" width="9.5" height="24.6"/>
		<g>
			<g>
				<polygon class="st2" points="65.2,52.6 2.5,101.2 10.5,128.2 55.3,152.5 56.3,160.5 71.8,157.8 71.8,162.8 42.5,175.3 
					45.5,179.6 77.3,173.8 77.3,64.4 				"/>
				<path class="st3" d="M81.1,0l-10,7.8L58.9,67c-6.3,30.8-3.7,62.8,7.4,92.2l7.7,20.3h7V0z"/>
				<polygon class="st4" points="10.5,128.2 22,118.7 52.5,136.5 55.3,152.5 				"/>
				<path class="st5" d="M20.5,79.1h-6.3v17.4c0,1.6,1.3,2.9,2.9,2.9h0.4c1.6,0,2.9-1.3,2.9-2.9V79.1z"/>
				<path class="st5" d="M38,65.7h-6.3v17.4c0,1.6,1.3,2.9,2.9,2.9h0.4c1.6,0,2.9-1.3,2.9-2.9V65.7z"/>
				<path class="st5" d="M52.6,53.7h-0.4c-1.6,0-2.9,1.3-2.9,2.9v14.4c0,1.6,1.3,2.9,2.9,2.9h0.4c1.6,0,2.9-1.3,2.9-2.9V56.7
					C55.5,55,54.2,53.7,52.6,53.7z"/>
				<polygon class="st4" points="81.1,68.4 77.2,64.5 77.2,7 81.1,7 				"/>
				<polygon class="st3" points="59.8,159.9 62,167 68.3,164.3 66.2,158.8 				"/>
				<polygon class="st4" points="2.5,101.2 56.1,113.4 56.3,115.8 3.3,104.1 				"/>
				<rect x="14.2" y="79.1" class="st3" width="6.3" height="2.9"/>
				<rect x="31.8" y="65.7" class="st3" width="6.3" height="2.9"/>
				<rect x="49.3" y="53.7" class="st3" width="6.3" height="2.9"/>
				<g>
					<path class="st5" d="M70.4,122L70.4,122h10.6v-13.5H65.4C66.4,113.2,68,117.7,70.4,122z"/>
					<path class="st5" d="M81.1,74h-10l-3.5,9c-0.4,1-0.7,2-1,3h14.5V74z"/>
					<path class="st6" d="M66.6,86c-2.3,7.3-2.6,15-1.1,22.4h15.7V86H66.6z"/>
				</g>
				<polygon class="st3" points="3.3,104.1 0,107.3 10.5,128.2 				"/>
			</g>
			<g>
				<polygon class="st2" points="97,52.6 159.7,101.2 151.7,128.2 106.9,152.5 105.9,160.5 90.4,157.8 90.4,162.8 119.7,175.3 
					116.7,179.6 84.8,173.8 84.8,64.4 				"/>
				<path class="st3" d="M81.1,0l10,7.8L103.2,67c6.3,30.8,3.7,62.8-7.4,92.2l-7.7,20.3h-7V0z"/>
				<polygon class="st4" points="151.7,128.2 140.2,118.7 109.6,136.5 106.9,152.5 				"/>
				<path class="st5" d="M144.6,79.1h0.4c1.6,0,2.9,1.3,2.9,2.9v14.4c0,1.6-1.3,2.9-2.9,2.9h-0.4c-1.6,0-2.9-1.3-2.9-2.9V82.1
					C141.7,80.5,143,79.1,144.6,79.1z"/>
				<path class="st5" d="M127.1,65.7h0.4c1.6,0,2.9,1.3,2.9,2.9v14.4c0,1.6-1.3,2.9-2.9,2.9h-0.4c-1.6,0-2.9-1.3-2.9-2.9V68.7
					C124.2,67.1,125.5,65.7,127.1,65.7z"/>
				<path class="st5" d="M109.6,53.7h0.4c1.6,0,2.9,1.3,2.9,2.9v14.4c0,1.6-1.3,2.9-2.9,2.9h-0.4c-1.6,0-2.9-1.3-2.9-2.9V56.7
					C106.6,55,108,53.7,109.6,53.7z"/>
				<polygon class="st4" points="81.1,68.4 85,64.5 85,7 81.1,7 				"/>
				<polygon class="st3" points="102.4,159.9 100.2,167 93.9,164.3 96,158.8 				"/>
				<polygon class="st4" points="159.7,101.2 106.1,113.4 105.9,115.8 158.9,104.1 				"/>
				
					<rect x="141.7" y="79.1" transform="matrix(-1 -1.224647e-16 1.224647e-16 -1 289.6651 161.1481)" class="st3" width="6.3" height="2.9"/>
				
					<rect x="124.2" y="65.7" transform="matrix(-1 -1.224647e-16 1.224647e-16 -1 254.6017 134.3496)" class="st3" width="6.3" height="2.9"/>
				
					<rect x="106.6" y="53.7" transform="matrix(-1 -1.224647e-16 1.224647e-16 -1 219.5383 110.3062)" class="st3" width="6.3" height="2.9"/>
				<path class="st2" d="M75.1,178.1l-1.1,1.5h7h7l-1.1-1.5C84.1,174.1,78.1,174.1,75.1,178.1z"/>
				<g>
					<path class="st5" d="M91.7,122L91.7,122H81.1v-13.5h15.7C95.8,113.2,94.1,117.7,91.7,122z"/>
					<path class="st5" d="M81.1,74h10l3.5,9c0.4,1,0.7,2,1,3H81.1V74z"/>
					<path class="st6" d="M95.6,86c2.3,7.3,2.6,15,1.1,22.4H81.1V86H95.6z"/>
				</g>
				<polygon class="st3" points="158.9,104.1 162.2,107.3 151.7,128.2 				"/>
			</g>
		</g>
		<linearGradient id="SVGID_3_" gradientUnits="userSpaceOnUse" x1="81.0924" y1="180.8912" x2="81.0924" y2="203.839">
			<stop  offset="0" style="stop-color:#CA4F24"/>
			<stop  offset="0.4775" style="stop-color:#DB9022;stop-opacity:0.7"/>
			<stop  offset="0.7825" style="stop-color:#E9BA3F;stop-opacity:0.4"/>
			<stop  offset="1" style="stop-color:#F6E83A;stop-opacity:0"/>
		</linearGradient>
		<rect x="74.1" y="179.6" class="st7" width="14" height="24.6"/>
	</g>
	<path class="st8" d="M159.7,101.2L148,92.1v-9.8c0-0.1,0-0.2,0-0.3h0v-2.9h-6.3V82h0c0,0.1,0,0.2,0,0.3v4.9l-11.3-8.7v-9.6
		c0-0.1,0-0.2,0-0.3h0v-2.9h-6.3v2.9h0c0,0.1,0,0.2,0,0.3v4.8l-11.3-8.7v-8.1c0-0.1,0-0.2,0-0.3h0v-2.9h-6.3v2.9h0
		c0,0.1,0,0.2,0,0.3v3.2l-5.7-4.4L91.1,7.8L81.1,0v179.6h7h0l0,0l1.8-4.8l26.7,4.8l3-4.3l-19.4-8.3l2.2-7.1l3.5,0.6l1-8l44.8-24.3
		l7.2-24.2L159.7,101.2z M96,158.8l-2.1,5.5l0,0l1.9-5.1C95.9,159.1,95.9,158.9,96,158.8l2.1,0.4L96,158.8z"/>
</g>
</svg>
