<?xml version="1.0" encoding="utf-8"?>
<!-- Generator: Adobe Illustrator 22.1.0, SVG Export Plug-In . SVG Version: 6.00 Build 0)  -->
<svg version="1.1" id="OBJECTS" xmlns="http://www.w3.org/2000/svg" xmlns:xlink="http://www.w3.org/1999/xlink" x="0px" y="0px"
	 viewBox="0 0 191.6 166.8" style="enable-background:new 0 0 191.6 166.8;" xml:space="preserve">
<style type="text/css">
	.st0{fill:#68A6DD;}
	.st1{fill:#2F3945;}
	.st2{fill:#535D7C;}
	.st3{fill:#646F8B;}
	.st4{fill:#3C485A;}
	.st5{fill:url(#SVGID_1_);}
	.st6{fill:url(#SVGID_2_);}
	.st7{fill:url(#SVGID_3_);}
	.st8{fill:url(#SVGID_4_);}
	.st9{opacity:0.5;fill:#222221;}
</style>
<g>
	<g>
		<g>
			<g>
				<g>
					<rect x="9.3" y="95.1" class="st0" width="8.2" height="23.2"/>
					<rect x="10.2" y="93.6" class="st1" width="6.4" height="1.5"/>
					<rect x="29.8" y="74.5" class="st0" width="8.2" height="23.2"/>
					<rect x="30.7" y="73.1" class="st1" width="6.4" height="1.5"/>
				</g>
				<g>
					<rect x="63.7" y="24.8" class="st0" width="8.2" height="23.2"/>
					<rect x="64.6" y="23.3" class="st1" width="6.4" height="1.5"/>
				</g>
				<g>
					<polygon class="st2" points="0,125.7 9.9,140.8 95.8,140.8 95.8,49.3 52.8,64.8 					"/>
					<path class="st1" d="M52.8,64.8l43-15.5V0C64.1,31.6,52.8,64.8,52.8,64.8z"/>
				</g>
				<polygon class="st0" points="52.8,64.8 62.1,140.8 54.7,140.8 45.7,70 				"/>
				<g>
					<path class="st0" d="M65.3,103.4c0,16.8,13.6,30.5,30.5,30.5V73C79,73,65.3,86.6,65.3,103.4z"/>
				</g>
				<g>
					<g>
						<path class="st3" d="M70.6,103.4c0,13.9,11.3,25.2,25.2,25.2V78.2C81.9,78.2,70.6,89.5,70.6,103.4z"/>
					</g>
				</g>
				<polygon class="st4" points="13.8,140.8 17.7,147.7 24.5,147.7 28.4,140.8 				"/>
				<polygon class="st4" points="38.7,140.8 42.6,147.7 49.4,147.7 53.3,140.8 				"/>
				<polygon class="st4" points="62.1,140.8 95.8,153.7 95.8,140.8 				"/>
				<polygon class="st1" points="46.6,77.1 4.1,125.7 12.3,137.5 54.3,137.5 				"/>
				<rect x="84.5" y="61.6" class="st4" width="11.3" height="7"/>
			</g>
			<g>
				<g>
					<rect x="174.1" y="95.1" class="st0" width="8.2" height="23.2"/>
					
						<rect x="175" y="93.6" transform="matrix(-1 -1.224647e-16 1.224647e-16 -1 356.4663 188.7586)" class="st1" width="6.4" height="1.5"/>
					<rect x="153.6" y="74.5" class="st0" width="8.2" height="23.2"/>
					
						<rect x="154.5" y="73.1" transform="matrix(-1 -1.224647e-16 1.224647e-16 -1 315.3375 147.6298)" class="st1" width="6.4" height="1.5"/>
				</g>
				<g>
					<rect x="119.7" y="24.8" class="st0" width="8.2" height="23.2"/>
					
						<rect x="120.6" y="23.3" transform="matrix(-1 -1.224647e-16 1.224647e-16 -1 247.5927 48.1474)" class="st1" width="6.4" height="1.5"/>
				</g>
				<g>
					<polygon class="st2" points="191.6,125.7 181.7,140.8 95.8,140.8 95.8,49.3 138.8,64.8 					"/>
					<path class="st1" d="M138.8,64.8l-43-15.5V0C127.4,31.6,138.8,64.8,138.8,64.8z"/>
				</g>
				<polygon class="st0" points="138.8,64.8 129.5,140.8 136.9,140.8 145.9,70 				"/>
				<g>
					<path class="st0" d="M126.2,103.4c0,16.8-13.6,30.5-30.5,30.5V73C112.6,73,126.2,86.6,126.2,103.4z"/>
				</g>
				<g>
					<path class="st3" d="M121,103.4c0,13.9-11.3,25.2-25.2,25.2V78.2C109.7,78.2,121,89.5,121,103.4z"/>
				</g>
				<polygon class="st4" points="177.8,140.8 173.9,147.7 167,147.7 163.2,140.8 				"/>
				<polygon class="st4" points="152.9,140.8 149,147.7 142.1,147.7 138.3,140.8 				"/>
				<polygon class="st4" points="129.5,140.8 95.8,153.7 95.8,140.8 				"/>
				<polygon class="st1" points="145,77.1 187.5,125.7 179.3,137.5 137.3,137.5 				"/>
				
					<rect x="95.8" y="61.6" transform="matrix(-1 -1.224647e-16 1.224647e-16 -1 202.8455 130.2564)" class="st4" width="11.3" height="7"/>
			</g>
		</g>
		<linearGradient id="SVGID_1_" gradientUnits="userSpaceOnUse" x1="21.0952" y1="148.6902" x2="21.0952" y2="166.53">
			<stop  offset="0" style="stop-color:#CA4F24"/>
			<stop  offset="0.4775" style="stop-color:#DB9022;stop-opacity:0.7"/>
			<stop  offset="0.7825" style="stop-color:#E9BA3F;stop-opacity:0.4"/>
			<stop  offset="1" style="stop-color:#F6E83A;stop-opacity:0"/>
		</linearGradient>
		<rect x="17.7" y="147.7" class="st5" width="6.9" height="19.1"/>
		<linearGradient id="SVGID_2_" gradientUnits="userSpaceOnUse" x1="45.9959" y1="148.6902" x2="45.9959" y2="166.53">
			<stop  offset="0" style="stop-color:#CA4F24"/>
			<stop  offset="0.4775" style="stop-color:#DB9022;stop-opacity:0.7"/>
			<stop  offset="0.7825" style="stop-color:#E9BA3F;stop-opacity:0.4"/>
			<stop  offset="1" style="stop-color:#F6E83A;stop-opacity:0"/>
		</linearGradient>
		<rect x="42.6" y="147.7" class="st6" width="6.9" height="19.1"/>
		<linearGradient id="SVGID_3_" gradientUnits="userSpaceOnUse" x1="145.584" y1="148.6902" x2="145.584" y2="166.53">
			<stop  offset="0" style="stop-color:#CA4F24"/>
			<stop  offset="0.4775" style="stop-color:#DB9022;stop-opacity:0.7"/>
			<stop  offset="0.7825" style="stop-color:#E9BA3F;stop-opacity:0.4"/>
			<stop  offset="1" style="stop-color:#F6E83A;stop-opacity:0"/>
		</linearGradient>
		<rect x="142.1" y="147.7" class="st7" width="6.9" height="19.1"/>
		<linearGradient id="SVGID_4_" gradientUnits="userSpaceOnUse" x1="170.484" y1="148.6902" x2="170.484" y2="166.53">
			<stop  offset="0" style="stop-color:#CA4F24"/>
			<stop  offset="0.4775" style="stop-color:#DB9022;stop-opacity:0.7"/>
			<stop  offset="0.7825" style="stop-color:#E9BA3F;stop-opacity:0.4"/>
			<stop  offset="1" style="stop-color:#F6E83A;stop-opacity:0"/>
		</linearGradient>
		<rect x="167" y="147.7" class="st8" width="6.9" height="19.1"/>
	</g>
	<path class="st9" d="M182.3,115V95.1h-0.9v-1.5h-6.4v1.5h-0.9v10.5l-12.4-14.3V74.6h-0.9v-1.5h-6.4v1.5h-0.9v7.3l-8-9.2l0.3-2.7
		l-7.1-5.2c0,0-3.2-9.3-10.9-22.8V24.8H127v-1.5h-6.4v1.5h-0.9v4.1C113.5,19.8,105.6,9.8,95.8,0v140.8h0l0,12.9l33.7-12.9h7.4h1.4
		l3.9,6.9h6.9l3.9-6.9h10.3l3.9,6.9h6.9l3.9-6.9h3.9l9.9-15.1L182.3,115z"/>
</g>
</svg>
