<?xml version="1.0" encoding="utf-8"?>
<!-- Generator: Adobe Illustrator 22.1.0, SVG Export Plug-In . SVG Version: 6.00 Build 0)  -->
<svg version="1.1" id="OBJECTS" xmlns="http://www.w3.org/2000/svg" xmlns:xlink="http://www.w3.org/1999/xlink" x="0px" y="0px"
	 viewBox="0 0 151.7 173" style="enable-background:new 0 0 151.7 173;" xml:space="preserve">
<style type="text/css">
	.st0{fill:#3C485A;}
	.st1{fill:#646F8B;}
	.st2{fill:#535D7C;}
	.st3{fill:#BF53A6;}
	.st4{fill:#CB69B1;}
	.st5{fill:url(#SVGID_1_);}
	.st6{fill:url(#SVGID_2_);}
	.st7{fill:url(#SVGID_3_);}
	.st8{fill:url(#SVGID_4_);}
	.st9{fill:url(#SVGID_5_);}
	.st10{fill:url(#SVGID_6_);}
	.st11{fill:url(#SVGID_7_);}
	.st12{fill:url(#SVGID_8_);}
	.st13{opacity:0.5;fill:#222221;}
</style>
<g>
	<g>
		<g>
			<g>
				<rect x="4.2" y="79.4" class="st0" width="4.5" height="42.7"/>
				<rect x="4.2" y="83.3" class="st1" width="4.5" height="32.6"/>
			</g>
			<g>
				<rect x="16.9" y="86.5" class="st0" width="4.5" height="42.7"/>
				<rect x="16.9" y="90.4" class="st1" width="4.5" height="32.6"/>
			</g>
			<g>
				<rect x="54.5" y="104.4" class="st0" width="4.5" height="42.7"/>
				<rect x="54.5" y="108.3" class="st2" width="4.5" height="32.6"/>
			</g>
			<g>
				<rect x="67.2" y="112.1" class="st0" width="4.5" height="42.7"/>
				<rect x="67.2" y="116" class="st2" width="4.5" height="32.6"/>
			</g>
			<g>
				<path class="st2" d="M51.4,74.3L36.6,61.5c-0.5,2.1-0.8,3.2-0.8,3.2L0,77.7v32.4l75.8,38.5V0c0,0-16,19.8-20,41.9
					C51.8,64,51.4,74.3,51.4,74.3z"/>
				<path class="st0" d="M36.6,61.5l14.8,12.8c0,0,0.4-10.3,4.5-32.4c4-22.1,20-41.9,20-41.9C50.8,13.7,39.5,50.4,36.6,61.5z"/>
			</g>
			<polygon class="st0" points="35.8,64.7 35.8,128.2 0,110.1 0,77.7 			"/>
			<path class="st0" d="M75.8,2.9c0,0-12.1,10.2-12.7,34.2c-0.6,24.1,12.7,34.5,12.7,34.5V2.9z"/>
			<path class="st3" d="M75.8,55.6L75.8,55.6C64.6,41.3,64.1,21.4,74.6,6.5l1.3-1.8V55.6z"/>
			<polygon class="st4" points="2.6,111.4 2.6,89.2 33,106.7 33,126.8 			"/>
			<g>
				
					<rect x="143" y="79.4" transform="matrix(-1 -1.224647e-16 1.224647e-16 -1 290.4441 201.4962)" class="st0" width="4.5" height="42.7"/>
				
					<rect x="143" y="83.3" transform="matrix(-1 -1.224647e-16 1.224647e-16 -1 290.4441 199.2343)" class="st1" width="4.5" height="32.6"/>
			</g>
			<g>
				
					<rect x="130.3" y="86.5" transform="matrix(-1 -1.224647e-16 1.224647e-16 -1 265.087 215.6333)" class="st0" width="4.5" height="42.7"/>
				
					<rect x="130.3" y="90.4" transform="matrix(-1 -1.224647e-16 1.224647e-16 -1 265.087 213.3715)" class="st1" width="4.5" height="32.6"/>
			</g>
			<g>
				
					<rect x="92.7" y="104.4" transform="matrix(-1 -1.224647e-16 1.224647e-16 -1 189.8666 251.4829)" class="st0" width="4.5" height="42.7"/>
				
					<rect x="92.7" y="108.3" transform="matrix(-1 -1.224647e-16 1.224647e-16 -1 189.8666 249.2211)" class="st2" width="4.5" height="32.6"/>
			</g>
			<g>
				
					<rect x="80" y="112.1" transform="matrix(-1 -1.224647e-16 1.224647e-16 -1 164.5096 266.9305)" class="st0" width="4.5" height="42.7"/>
				
					<rect x="80" y="116" transform="matrix(-1 -1.224647e-16 1.224647e-16 -1 164.5096 264.6687)" class="st2" width="4.5" height="32.6"/>
			</g>
			<g>
				<path class="st2" d="M100.3,74.3l14.8-12.8c0.5,2.1,0.8,3.2,0.8,3.2l35.8,13v32.4l-75.8,38.5V0c0,0,16,19.8,20,41.9
					C99.9,64,100.3,74.3,100.3,74.3z"/>
				<path class="st0" d="M115.1,61.5l-14.8,12.8c0,0-0.4-10.3-4.5-32.4c-4-22.1-20-41.9-20-41.9C100.9,13.7,112.2,50.4,115.1,61.5z"
					/>
			</g>
			<polygon class="st0" points="115.9,64.7 115.9,128.2 151.7,110.1 151.7,77.7 			"/>
			<path class="st0" d="M75.8,2.9c0,0,12.1,10.2,12.7,34.2c0.6,24.1-12.7,34.5-12.7,34.5V2.9z"/>
			<polygon class="st3" points="115.1,61.5 75.8,95.4 36.6,61.5 35.8,64.7 75.8,99.2 115.9,64.7 			"/>
			<path class="st3" d="M75.8,55.6L75.8,55.6c11.2-14.3,11.7-34.3,1.3-49.1l-1.3-1.8V55.6z"/>
			<polygon class="st4" points="149.1,111.4 149.1,89.2 118.7,106.7 118.7,126.8 			"/>
			<path class="st0" d="M75.8,136.3h-0.5c-3.8,0-6.9-3.1-6.9-6.9v-19.7c0-3.8,3.1-6.9,6.9-6.9h0.5V136.3z"/>
			<path class="st0" d="M75.8,102.8h0.5c3.8,0,6.9,3.1,6.9,6.9v19.7c0,3.8-3.1,6.9-6.9,6.9h-0.5V102.8z"/>
		</g>
		<linearGradient id="SVGID_1_" gradientUnits="userSpaceOnUse" x1="6.4718" y1="123.0692" x2="6.4718" y2="140.0207">
			<stop  offset="0" style="stop-color:#CA4F24"/>
			<stop  offset="0.4775" style="stop-color:#DB9022;stop-opacity:0.7"/>
			<stop  offset="0.7825" style="stop-color:#E9BA3F;stop-opacity:0.4"/>
			<stop  offset="1" style="stop-color:#F6E83A;stop-opacity:0"/>
		</linearGradient>
		<rect x="4.2" y="122.1" class="st5" width="4.5" height="18.2"/>
		<linearGradient id="SVGID_2_" gradientUnits="userSpaceOnUse" x1="19.1504" y1="130.1378" x2="19.1504" y2="147.0893">
			<stop  offset="0" style="stop-color:#CA4F24"/>
			<stop  offset="0.4775" style="stop-color:#DB9022;stop-opacity:0.7"/>
			<stop  offset="0.7825" style="stop-color:#E9BA3F;stop-opacity:0.4"/>
			<stop  offset="1" style="stop-color:#F6E83A;stop-opacity:0"/>
		</linearGradient>
		<rect x="16.9" y="129.2" class="st6" width="4.5" height="18.2"/>
		<linearGradient id="SVGID_3_" gradientUnits="userSpaceOnUse" x1="56.7605" y1="148.0626" x2="56.7605" y2="165.0141">
			<stop  offset="0" style="stop-color:#CA4F24"/>
			<stop  offset="0.4775" style="stop-color:#DB9022;stop-opacity:0.7"/>
			<stop  offset="0.7825" style="stop-color:#E9BA3F;stop-opacity:0.4"/>
			<stop  offset="1" style="stop-color:#F6E83A;stop-opacity:0"/>
		</linearGradient>
		<rect x="54.5" y="147.1" class="st7" width="4.5" height="18.2"/>
		<linearGradient id="SVGID_4_" gradientUnits="userSpaceOnUse" x1="69.4391" y1="155.7864" x2="69.4391" y2="172.7379">
			<stop  offset="0" style="stop-color:#CA4F24"/>
			<stop  offset="0.4775" style="stop-color:#DB9022;stop-opacity:0.7"/>
			<stop  offset="0.7825" style="stop-color:#E9BA3F;stop-opacity:0.4"/>
			<stop  offset="1" style="stop-color:#F6E83A;stop-opacity:0"/>
		</linearGradient>
		<rect x="67.2" y="154.8" class="st8" width="4.5" height="18.2"/>
		<linearGradient id="SVGID_5_" gradientUnits="userSpaceOnUse" x1="82.2548" y1="155.7864" x2="82.2548" y2="172.7379">
			<stop  offset="0" style="stop-color:#CA4F24"/>
			<stop  offset="0.4775" style="stop-color:#DB9022;stop-opacity:0.7"/>
			<stop  offset="0.7825" style="stop-color:#E9BA3F;stop-opacity:0.4"/>
			<stop  offset="1" style="stop-color:#F6E83A;stop-opacity:0"/>
		</linearGradient>
		<rect x="80" y="154.8" class="st9" width="4.5" height="18.2"/>
		<linearGradient id="SVGID_6_" gradientUnits="userSpaceOnUse" x1="94.9333" y1="148.0584" x2="94.9333" y2="165.0099">
			<stop  offset="0" style="stop-color:#CA4F24"/>
			<stop  offset="0.4775" style="stop-color:#DB9022;stop-opacity:0.7"/>
			<stop  offset="0.7825" style="stop-color:#E9BA3F;stop-opacity:0.4"/>
			<stop  offset="1" style="stop-color:#F6E83A;stop-opacity:0"/>
		</linearGradient>
		<rect x="92.7" y="147.1" class="st10" width="4.5" height="18.2"/>
		<linearGradient id="SVGID_7_" gradientUnits="userSpaceOnUse" x1="132.5435" y1="130.1378" x2="132.5435" y2="147.0893">
			<stop  offset="0" style="stop-color:#CA4F24"/>
			<stop  offset="0.4775" style="stop-color:#DB9022;stop-opacity:0.7"/>
			<stop  offset="0.7825" style="stop-color:#E9BA3F;stop-opacity:0.4"/>
			<stop  offset="1" style="stop-color:#F6E83A;stop-opacity:0"/>
		</linearGradient>
		<rect x="130.3" y="129.2" class="st11" width="4.5" height="18.2"/>
		<linearGradient id="SVGID_8_" gradientUnits="userSpaceOnUse" x1="145.222" y1="123.0121" x2="145.222" y2="139.9636">
			<stop  offset="0" style="stop-color:#CA4F24"/>
			<stop  offset="0.4775" style="stop-color:#DB9022;stop-opacity:0.7"/>
			<stop  offset="0.7825" style="stop-color:#E9BA3F;stop-opacity:0.4"/>
			<stop  offset="1" style="stop-color:#F6E83A;stop-opacity:0"/>
		</linearGradient>
		<rect x="143" y="122" class="st12" width="4.5" height="18.2"/>
	</g>
	<path class="st13" d="M75.9,148.5l4.2-2.1v2.2v6.2h4.5v-6.2v-4.5l8.2-4.1v0.9v6.2h4.5v-6.2v-3.2l33.1-16.8v2.1v6.2h4.5V123v-4.4
		l2.3-1.2l5.9-3v1.4v6.2h4.5v-6.2v-3.7l1.7-0.8l2.6-1.3V77.7l-35.8-13l0,0c0,0-0.3-1.2-0.8-3.2C112.2,50.4,100.9,13.7,75.9,0v2.9
		v1.8v131.6V148.5z"/>
</g>
</svg>
