<?xml version="1.0" encoding="utf-8"?>
<!-- Generator: Adobe Illustrator 22.1.0, SVG Export Plug-In . SVG Version: 6.00 Build 0)  -->
<svg version="1.1" id="Capa_1" xmlns="http://www.w3.org/2000/svg" xmlns:xlink="http://www.w3.org/1999/xlink" x="0px" y="0px"
	 viewBox="0 0 272 512" style="enable-background:new 0 0 272 512;" xml:space="preserve">
<style type="text/css">
	.st0{fill:#FF4F19;}
	.st1{fill:#E9001E;}
	.st2{fill:#FFD200;}
	.st3{fill:#FF9600;}
	.st4{fill:#53DCFF;}
	.st5{fill:#B3F4FF;}
	.st6{fill:#5C546A;}
</style>
<g>
	<g>
		<g>
			<path class="st0" d="M197,306.8c0.4-3.4,2.8-6.2,6.1-7c3.3-0.8,6.8,0.6,8.6,3.5l49,76.6c7.4,11.6,11.3,24.9,11.3,38.7V504
				c0,3.4-2.1,6.4-5.3,7.5c-0.9,0.3-1.8,0.5-2.7,0.5c-2.4,0-4.6-1-6.2-2.9l-70.3-85.9c-1.3-1.6-2-3.8-1.8-5.9L197,306.8z"/>
		</g>
		<g>
			<path class="st1" d="M75,306.8c-0.4-3.4-2.8-6.2-6.1-7c-3.3-0.8-6.8,0.6-8.6,3.5l-49,76.6C3.9,391.6,0,404.9,0,418.6V504
				c0,3.4,2.1,6.4,5.3,7.5c0.9,0.3,1.8,0.5,2.7,0.5c2.4,0,4.6-1,6.2-2.9l70.3-85.9c1.3-1.6,2-3.8,1.8-5.9L75,306.8z"/>
		</g>
		<g>
			<path class="st2" d="M140.1,1.1c-2.5-1.5-5.7-1.5-8.2,0C128.5,3.2,48,52.7,48,160c0,43.3,10.8,158.6,25,268.1
				C75.1,444,88.8,456,104.7,456h62.5c16,0,29.6-12,31.7-27.9c14.3-109.5,25-224.8,25-268.1C224,52.7,143.5,3.2,140.1,1.1z"/>
		</g>
		<g>
			<path class="st3" d="M136,456h-31.3c-16,0-29.6-12-31.7-27.9C58.8,318.6,48,203.3,48,160C48,52.7,128.5,3.2,131.9,1.1
				c1.3-0.8,2.7-1.1,4.1-1.1h0L136,456L136,456z"/>
		</g>
		<g>
			<circle class="st4" cx="136" cy="168" r="48"/>
		</g>
		<g>
			<g>
				<path class="st0" d="M136,512c-4.4,0-8-3.6-8-8V312c0-4.4,3.6-8,8-8s8,3.6,8,8v192C144,508.4,140.4,512,136,512z"/>
			</g>
		</g>
		<g>
			<path class="st0" d="M131.9,1.1c-2.3,1.4-39,24-63.1,70.9h134.4c-24.1-46.9-60.8-69.5-63.1-70.9C137.6-0.4,134.4-0.4,131.9,1.1z"
				/>
		</g>
		<g>
			<path class="st1" d="M136,0c-1.4,0-2.9,0.4-4.1,1.1c-2.3,1.4-39,24-63.1,70.9H136V0z"/>
		</g>
		<g>
			<path class="st5" d="M184,168c0-26.5-21.5-48-48-48v96C162.5,216,184,194.5,184,168z"/>
		</g>
	</g>
	<g>
		<g>
			<path class="st6" d="M136,224c-30.9,0-56-25.1-56-56s25.1-56,56-56s56,25.1,56,56S166.9,224,136,224z M136,128
				c-22.1,0-40,17.9-40,40s17.9,40,40,40s40-17.9,40-40S158.1,128,136,128z"/>
		</g>
	</g>
</g>
</svg>
